<?xml version="1.0" standalone="no"?>
<!DOCTYPE svg PUBLIC "-//W3C//DTD SVG 20010904//EN"
 "http://www.w3.org/TR/2001/REC-SVG-20010904/DTD/svg10.dtd">
<svg version="1.0" xmlns="http://www.w3.org/2000/svg"
 width="826.000000pt" height="468.000000pt" viewBox="0 0 826.000000 468.000000"
 preserveAspectRatio="xMidYMid meet">

<g transform="translate(0.000000,468.000000) scale(0.100000,-0.100000)"
fill="#000000" stroke="none">
<path d="M3222 4523 l-2 -63 38 2 c36 1 36 1 5 5 -31 4 -32 5 -36 61 l-3 57
-2 -62z"/>
<path d="M3883 4523 c-22 -54 -22 -87 -2 -50 12 21 57 23 65 2 4 -8 10 -15 15
-15 4 0 -2 27 -13 60 -12 33 -27 60 -32 60 -6 0 -21 -26 -33 -57z m47 -10 c0
-7 -9 -13 -20 -13 -17 0 -18 3 -8 25 8 19 14 22 20 13 4 -7 8 -19 8 -25z"/>
<path d="M4787 4560 c-9 -11 -12 -20 -7 -20 6 0 11 -19 12 -42 1 -41 1 -41 5
-8 2 19 11 41 20 48 15 11 15 12 -3 12 -19 1 -19 1 0 15 15 11 16 15 5 15 -8
0 -22 -9 -32 -20z"/>
<path d="M4902 4518 l1 -63 6 50 7 50 16 -37 c9 -21 19 -38 22 -38 3 0 12 15
20 33 l14 32 1 -42 c1 -67 21 -51 21 17 0 73 -18 80 -42 18 l-15 -43 -13 43
c-20 65 -40 55 -38 -20z"/>
<path d="M5200 4559 c0 -11 -5 -17 -10 -14 -6 3 -19 3 -30 0 -15 -5 -20 -15
-20 -41 0 -19 3 -35 8 -35 4 -1 22 -3 40 -5 l32 -2 0 59 c0 33 -4 59 -10 59
-5 0 -10 -9 -10 -21z m-5 -55 c0 -32 -21 -39 -38 -12 -8 12 -7 21 3 32 19 24
35 14 35 -20z"/>
<path d="M5350 4520 c0 -33 4 -60 10 -60 6 0 10 27 10 60 0 33 -4 60 -10 60
-6 0 -10 -27 -10 -60z"/>
<path d="M3310 4536 c-28 -35 11 -93 48 -70 35 22 22 84 -18 84 -10 0 -23 -7
-30 -14z m54 -19 c8 -13 6 -21 -7 -34 -17 -17 -19 -17 -32 1 -10 14 -11 24 -4
38 12 22 27 20 43 -5z"/>
<path d="M3404 4535 c-8 -20 4 -35 27 -35 11 0 19 -7 19 -16 0 -12 -7 -15 -25
-12 -14 3 -25 1 -25 -4 0 -5 15 -8 32 -6 42 4 51 34 14 48 -32 12 -33 27 -3
33 19 4 18 4 -6 6 -16 0 -30 -5 -33 -14z"/>
<path d="M3494 4535 c-8 -20 4 -35 27 -35 12 0 19 -5 16 -12 -2 -7 -14 -13
-26 -12 -11 0 -21 -3 -21 -8 0 -11 41 -10 59 1 20 13 7 39 -21 43 -28 4 -26
23 2 22 11 0 20 3 20 8 0 14 -50 9 -56 -7z"/>
<path d="M3630 4540 c0 -20 29 -80 38 -80 6 0 17 18 26 40 19 47 19 50 7 50
-5 0 -12 -13 -16 -30 -9 -41 -22 -46 -30 -10 -6 29 -25 52 -25 30z"/>
<path d="M3737 4543 c-15 -14 -6 -34 19 -43 28 -11 23 -35 -7 -27 -11 3 -19 1
-19 -4 0 -14 46 -11 58 4 13 16 3 34 -22 38 -25 5 -21 24 4 23 11 0 20 3 20 8
0 10 -44 11 -53 1z"/>
<path d="M3992 4538 c-29 -29 -7 -78 35 -78 13 0 23 4 23 8 0 5 -10 8 -21 8
-30 -1 -47 27 -29 49 7 9 22 14 32 12 10 -3 18 -1 18 4 0 13 -44 11 -58 -3z"/>
<path d="M4082 4538 c-29 -29 -7 -78 35 -78 13 0 23 4 23 9 0 5 -9 7 -19 4
-27 -7 -45 28 -27 52 8 11 20 16 30 12 9 -4 16 -2 16 3 0 14 -44 12 -58 -2z"/>
<path d="M4160 4531 c0 -11 4 -31 10 -46 8 -20 16 -25 40 -23 29 2 30 4 28 48
-1 35 -2 38 -5 13 -8 -62 -53 -69 -53 -7 0 19 -4 34 -10 34 -5 0 -10 -9 -10
-19z"/>
<path d="M4270 4503 c0 -23 5 -43 10 -43 6 0 10 16 10 35 0 28 5 38 23 44 19
8 18 9 -10 9 -32 -1 -33 -2 -33 -45z"/>
<path d="M4345 4540 c-3 -6 1 -7 9 -4 9 3 24 3 34 -2 14 -6 11 -8 -13 -13 -24
-5 -30 -11 -30 -31 0 -21 5 -25 33 -26 31 -1 32 1 32 36 0 25 -5 40 -16 44
-23 9 -42 7 -49 -4z m55 -39 c0 -5 -7 -14 -15 -21 -18 -15 -42 1 -31 19 8 13
46 15 46 2z"/>
<path d="M4452 4538 c-27 -27 -7 -78 29 -78 10 0 20 4 23 8 3 5 -4 8 -16 8
-29 -1 -46 28 -28 49 7 9 22 14 32 12 10 -3 16 -1 12 4 -8 13 -38 11 -52 -3z"/>
<path d="M4530 4540 c0 -5 8 -26 17 -46 17 -35 17 -36 -2 -50 -17 -13 -17 -14
-1 -14 11 0 25 19 42 56 27 62 26 86 -2 32 l-17 -33 -14 33 c-13 31 -23 41
-23 22z"/>
<path d="M4690 4536 c-28 -35 11 -93 48 -70 35 22 22 84 -18 84 -10 0 -23 -7
-30 -14z m54 -19 c8 -13 6 -21 -7 -34 -17 -17 -19 -17 -32 1 -10 14 -11 24 -4
38 12 22 27 20 43 -5z"/>
<path d="M5053 4543 c-7 -2 -13 -20 -13 -39 0 -28 4 -35 25 -40 31 -8 55 10
55 40 0 37 -30 55 -67 39z m42 -39 c0 -32 -21 -39 -38 -12 -8 12 -7 21 3 32
19 24 35 14 35 -20z"/>
<path d="M5249 4529 c-18 -34 3 -69 41 -69 16 0 30 4 30 8 0 4 -12 8 -27 7
-14 0 -28 6 -30 13 -3 8 7 12 31 12 39 0 41 2 26 31 -14 26 -56 25 -71 -2z
m59 -6 c2 -8 -6 -13 -22 -13 -25 0 -33 10 -19 24 10 10 36 3 41 -11z"/>
<path d="M420 4296 c0 -85 0 -85 -27 -89 l-28 -4 28 -2 27 -1 0 -269 0 -270
-27 -4 -28 -4 28 -2 27 -1 0 -264 0 -265 -27 -4 -28 -4 28 -2 27 -1 0 -269 0
-270 -27 -4 -28 -4 28 -2 27 -1 0 -264 0 -265 -27 -4 -28 -4 28 -2 27 -1 0
-264 0 -265 -27 -4 -28 -4 28 -2 27 -1 0 -269 0 -270 -27 -4 -28 -4 28 -2 27
-1 0 -205 0 -205 454 0 455 0 4 -27 4 -28 2 28 1 27 454 0 455 0 4 -27 4 -28
2 28 1 27 459 0 460 0 4 -27 4 -28 2 28 1 27 459 0 460 0 4 -27 4 -28 2 28 1
27 459 0 460 0 4 -27 4 -28 2 28 1 27 454 0 455 0 4 -27 4 -28 2 28 1 27 459
0 460 0 4 -27 4 -28 2 28 1 27 459 0 460 0 4 -27 4 -28 2 28 1 27 175 0 175 0
0 1930 0 1930 -3880 0 -3880 0 0 -84z m7750 -1846 l0 -1920 -3870 0 -3870 0 0
1920 0 1920 3870 0 3870 0 0 -1920z"/>
<path d="M950 4190 l0 -50 63 2 62 3 0 35 c0 25 -5 36 -18 38 -26 5 -49 -18
-44 -45 3 -19 0 -23 -19 -23 -22 0 -24 4 -24 45 0 25 -4 45 -10 45 -5 0 -10
-23 -10 -50z m115 -10 c0 -27 -22 -39 -31 -16 -8 22 3 49 19 43 6 -2 12 -14
12 -27z"/>
<path d="M1107 4213 c-13 -13 -7 -32 13 -38 26 -8 26 -22 0 -28 -17 -4 -17 -4
2 -3 30 1 36 32 9 41 -28 8 -27 23 2 28 20 4 20 4 1 6 -11 0 -24 -2 -27 -6z"/>
<path d="M1177 4213 c-13 -13 -7 -31 13 -36 11 -3 20 -11 20 -17 0 -7 -8 -10
-20 -7 -11 3 -20 1 -20 -4 0 -15 47 -10 54 6 3 9 -5 20 -22 29 l-27 15 25 10
c22 9 23 10 4 10 -11 1 -24 -2 -27 -6z"/>
<path d="M530 4200 c0 -6 57 -10 150 -10 93 0 150 4 150 10 0 6 -57 10 -150
10 -93 0 -150 -4 -150 -10z"/>
<path d="M960 4005 c-6 -14 -14 -36 -20 -50 -6 -16 -6 -25 0 -25 6 0 10 7 10
15 0 21 46 19 54 -1 4 -9 9 -15 11 -12 7 7 -28 98 -37 98 -5 0 -13 -11 -18
-25z m30 -21 c0 -8 -7 -14 -15 -14 -17 0 -18 2 -9 24 7 18 24 12 24 -10z"/>
<path d="M1032 3998 c-26 -26 -6 -68 33 -68 18 0 17 2 -5 13 -14 7 -25 19 -25
27 0 8 11 20 25 27 22 11 23 13 5 13 -12 0 -26 -5 -33 -12z"/>
<path d="M1104 3996 c-12 -31 0 -61 26 -63 25 -3 25 -3 3 7 -13 5 -23 18 -23
30 0 12 9 24 23 30 l22 9 -23 0 c-12 1 -25 -5 -28 -13z"/>
<path d="M1183 3975 c2 -36 5 -40 30 -41 25 -1 27 1 26 40 -1 42 -3 41 -13 -7
-9 -37 -29 -30 -38 14 -6 34 -6 34 -5 -6z"/>
<path d="M1260 3969 c0 -22 5 -39 10 -39 6 0 10 13 10 30 0 17 7 33 17 38 13
8 11 10 -10 10 -25 0 -27 -4 -27 -39z"/>
<path d="M1350 3999 l25 -12 -25 -6 c-36 -10 -34 -46 3 -47 26 -1 28 1 25 35
-3 30 -7 36 -28 38 l-25 3 25 -11z m20 -38 c0 -14 -18 -23 -30 -16 -6 4 -8 11
-5 16 8 12 35 12 35 0z"/>
<path d="M1410 3990 c-15 -27 4 -60 33 -59 l22 0 -22 9 c-14 6 -23 18 -23 30
0 12 9 24 23 30 l22 9 -22 0 c-13 1 -27 -8 -33 -19z"/>
<path d="M1480 4005 c0 -3 7 -22 15 -43 15 -34 15 -38 -1 -49 -15 -11 -15 -13
-2 -13 15 0 63 98 53 108 -2 3 -11 -10 -18 -28 l-14 -32 -11 31 c-10 27 -22
42 -22 26z"/>
<path d="M945 1845 l190 -185 190 0 c128 0 250 -7 375 -21 l185 -22 184 42
c102 23 187 37 190 33 3 -5 87 -104 185 -221 178 -209 180 -211 200 -193 88
78 346 292 352 292 4 0 87 -52 184 -115 97 -63 183 -115 190 -115 8 0 94 25
192 56 l177 55 185 -96 185 -96 180 -169 c99 -94 184 -170 190 -170 6 0 92 60
192 133 l181 134 172 -49 c113 -32 239 -58 373 -79 175 -26 227 -39 380 -90
168 -57 189 -61 363 -80 143 -15 228 -31 375 -69 178 -46 202 -50 384 -60 107
-6 273 -22 370 -35 l174 -25 189 52 c103 29 188 55 188 59 0 4 -39 -3 -87 -17
-49 -13 -134 -36 -189 -51 l-102 -27 -203 27 c-112 14 -276 29 -364 33 -150 6
-172 9 -345 55 -149 40 -223 53 -378 70 -184 20 -202 24 -370 81 -151 50 -206
64 -371 89 -126 19 -260 47 -378 80 l-183 50 -32 -22 c-18 -13 -102 -74 -186
-136 l-152 -113 -184 173 -185 174 -179 91 c-99 51 -188 92 -198 92 -10 0 -97
-25 -192 -56 l-174 -55 -183 120 c-101 67 -187 121 -190 121 -5 0 -86 -68
-355 -296 -13 -11 -41 19 -195 201 -99 118 -187 214 -196 214 -9 1 -95 -17
-191 -38 l-176 -40 -163 20 c-112 13 -229 19 -368 19 l-204 0 -187 180 c-103
99 -192 180 -196 180 -5 -1 77 -84 181 -185z"/>
<path d="M132 4238 c-17 -17 -15 -63 4 -79 22 -18 48 0 52 35 6 45 -29 71 -56
44z m38 -18 c11 -21 -2 -60 -20 -60 -5 0 -12 9 -15 20 -7 23 2 60 15 60 5 0
14 -9 20 -20z"/>
<path d="M250 4235 c-18 -21 -5 -45 25 -45 30 0 25 -17 -9 -30 -20 -9 -20 -9
0 -9 27 -1 44 18 44 49 0 44 -35 65 -60 35z m40 -15 c0 -11 -7 -20 -15 -20 -8
0 -15 9 -15 20 0 11 7 20 15 20 8 0 15 -9 15 -20z"/>
<path d="M200 4160 c0 -5 5 -10 10 -10 6 0 10 5 10 10 0 6 -4 10 -10 10 -5 0
-10 -4 -10 -10z"/>
<path d="M132 3688 c-17 -17 -15 -63 4 -79 22 -18 48 0 52 35 6 45 -29 71 -56
44z m38 -18 c11 -21 -2 -60 -20 -60 -5 0 -12 9 -15 20 -7 23 2 60 15 60 5 0
14 -9 20 -20z"/>
<path d="M254 3685 c-4 -9 -4 -19 0 -22 3 -3 1 -12 -5 -20 -16 -18 7 -45 35
-41 18 3 21 10 21 48 0 39 -3 45 -23 48 -13 2 -25 -3 -28 -13z m39 -10 c1 -5
-6 -11 -15 -13 -11 -2 -18 3 -18 13 0 17 30 18 33 0z m2 -45 c0 -8 -8 -16 -17
-18 -13 -2 -18 3 -18 18 0 15 5 20 18 18 9 -2 17 -10 17 -18z"/>
<path d="M200 3610 c0 -5 5 -10 10 -10 6 0 10 5 10 10 0 6 -4 10 -10 10 -5 0
-10 -4 -10 -10z"/>
<path d="M132 3148 c-17 -17 -15 -63 4 -79 22 -18 48 0 52 35 6 45 -29 71 -56
44z m38 -18 c11 -21 -2 -60 -20 -60 -5 0 -12 9 -15 20 -7 23 2 60 15 60 5 0
14 -9 20 -20z"/>
<path d="M263 3153 c32 -5 31 -3 12 -50 -8 -20 -13 -38 -10 -41 4 -4 45 81 45
94 0 2 -17 3 -37 3 -31 -2 -33 -3 -10 -6z"/>
<path d="M200 3070 c0 -5 5 -10 10 -10 6 0 10 5 10 10 0 6 -4 10 -10 10 -5 0
-10 -4 -10 -10z"/>
<path d="M132 2598 c-17 -17 -15 -63 4 -79 22 -18 48 0 52 35 6 45 -29 71 -56
44z m38 -18 c11 -21 -2 -60 -20 -60 -13 0 -22 37 -15 60 3 11 10 20 15 20 5 0
14 -9 20 -20z"/>
<path d="M248 2585 c-16 -36 4 -78 35 -73 17 2 22 10 22 33 0 23 -5 31 -25 36
l-25 6 25 11 c25 11 25 11 2 11 -15 1 -26 -8 -34 -24z m49 -31 c8 -21 -13 -42
-28 -27 -13 13 -5 43 11 43 6 0 13 -7 17 -16z"/>
<path d="M200 2520 c0 -5 5 -10 10 -10 6 0 10 5 10 10 0 6 -4 10 -10 10 -5 0
-10 -4 -10 -10z"/>
<path d="M132 2058 c-17 -17 -15 -63 4 -79 22 -18 48 0 52 35 6 45 -29 71 -56
44z m38 -18 c11 -21 -2 -60 -20 -60 -5 0 -12 9 -15 20 -7 23 2 60 15 60 5 0
14 -9 20 -20z"/>
<path d="M250 2052 c0 -9 10 -22 21 -27 28 -13 27 -27 -2 -42 -23 -12 -23 -13
-3 -13 46 0 57 56 14 67 -27 7 -25 21 3 26 19 4 18 4 -5 6 -21 1 -28 -4 -28
-17z"/>
<path d="M200 1980 c0 -5 5 -10 10 -10 6 0 10 5 10 10 0 6 -4 10 -10 10 -5 0
-10 -4 -10 -10z"/>
<path d="M132 1518 c-17 -17 -15 -63 4 -79 22 -18 48 0 52 35 6 45 -29 71 -56
44z m38 -18 c11 -21 -2 -60 -20 -60 -5 0 -12 9 -15 20 -7 23 2 60 15 60 5 0
14 -9 20 -20z"/>
<path d="M261 1501 c-26 -36 -26 -41 -1 -41 11 0 20 -7 20 -15 0 -21 18 -19
22 3 5 26 -3 82 -12 82 -5 0 -18 -13 -29 -29z m19 -16 c0 -8 -7 -15 -16 -15
-14 0 -14 3 -4 15 7 8 14 15 16 15 2 0 4 -7 4 -15z"/>
<path d="M200 1440 c0 -5 5 -10 10 -10 6 0 10 5 10 10 0 6 -4 10 -10 10 -5 0
-10 -4 -10 -10z"/>
<path d="M132 968 c-17 -17 -15 -63 4 -79 22 -18 48 0 52 35 6 45 -29 71 -56
44z m38 -18 c11 -21 -2 -60 -20 -60 -5 0 -12 9 -15 20 -7 23 2 60 15 60 5 0
14 -9 20 -20z"/>
<path d="M268 973 c26 -5 30 -33 5 -34 -13 0 -12 -3 5 -10 29 -11 24 -31 -9
-40 -20 -6 -21 -7 -4 -8 11 0 27 4 35 9 12 8 13 13 3 29 -8 13 -9 22 -2 26 16
10 -10 35 -35 34 -20 -2 -20 -2 2 -6z"/>
<path d="M200 890 c0 -5 5 -10 10 -10 6 0 10 5 10 10 0 6 -4 10 -10 10 -5 0
-10 -4 -10 -10z"/>
<path d="M1236 412 c-3 -6 2 -8 13 -5 31 8 35 -17 7 -46 -34 -35 -33 -41 7
-40 25 1 27 3 9 6 l-24 5 22 23 c12 13 20 31 18 42 -3 19 -42 30 -52 15z"/>
<path d="M1370 402 c0 -9 10 -22 21 -27 28 -13 27 -27 -2 -42 -23 -12 -23 -13
-3 -13 46 0 57 56 14 67 -27 7 -25 21 3 26 19 4 18 4 -5 6 -21 1 -28 -4 -28
-17z"/>
<path d="M2150 401 c0 -13 8 -21 23 -23 31 -4 31 -43 0 -42 -13 0 -23 -3 -23
-8 0 -15 49 -8 59 9 11 21 -3 53 -24 53 -24 0 -17 18 8 23 16 3 13 5 -10 6
-26 1 -33 -3 -33 -18z"/>
<path d="M2282 408 c-17 -17 -15 -63 4 -79 22 -18 48 0 52 35 6 45 -29 71 -56
44z m43 -18 c7 -23 -2 -60 -15 -60 -5 0 -14 9 -20 20 -11 21 2 60 20 60 5 0
12 -9 15 -20z"/>
<path d="M3102 413 c28 -4 28 -4 13 -40 -8 -19 -15 -40 -15 -46 0 -19 14 3 31
48 l17 45 -36 -1 c-30 -2 -32 -3 -10 -6z"/>
<path d="M3210 402 c0 -9 10 -22 21 -27 28 -13 27 -27 -2 -42 -23 -12 -23 -13
-3 -13 46 0 57 56 14 67 -27 7 -25 21 3 26 19 4 18 4 -5 6 -21 1 -28 -4 -28
-17z"/>
<path d="M3980 409 c0 -5 5 -7 10 -4 6 4 10 -10 10 -34 0 -22 -5 -42 -12 -44
-7 -3 3 -5 22 -5 19 0 27 2 18 5 -14 3 -18 15 -18 49 0 32 -4 44 -15 44 -8 0
-15 -5 -15 -11z"/>
<path d="M4054 395 c-10 -39 3 -75 26 -75 29 0 47 42 32 75 -7 15 -20 25 -32
25 -13 0 -22 -9 -26 -25z m41 -26 c0 -24 -5 -34 -15 -34 -16 0 -25 37 -16 62
10 26 31 8 31 -28z"/>
<path d="M4192 408 c-17 -17 -15 -63 4 -79 22 -18 48 0 52 35 6 45 -29 71 -56
44z m43 -18 c8 -26 -3 -60 -20 -60 -17 0 -28 34 -20 60 3 11 12 20 20 20 8 0
17 -9 20 -20z"/>
<path d="M4910 409 c0 -5 5 -7 10 -4 6 4 10 -10 10 -34 0 -22 -5 -42 -12 -44
-7 -3 3 -5 22 -5 19 0 27 2 18 5 -14 3 -18 15 -18 49 0 32 -4 44 -15 44 -8 0
-15 -5 -15 -11z"/>
<path d="M4980 412 c0 -6 8 -8 19 -5 31 8 35 -17 7 -46 -34 -35 -33 -41 7 -40
25 1 27 3 9 6 l-24 5 22 23 c29 30 23 59 -13 63 -15 2 -27 -1 -27 -6z"/>
<path d="M5120 401 c0 -11 9 -21 21 -24 28 -8 21 -39 -11 -48 l-25 -7 26 -1
c49 -2 65 54 19 66 -27 7 -25 21 3 26 19 4 18 4 -5 6 -21 1 -28 -4 -28 -18z"/>
<path d="M5830 409 c0 -5 5 -7 10 -4 6 4 10 -10 10 -34 0 -22 -5 -42 -12 -44
-7 -3 3 -5 22 -5 19 0 27 2 18 5 -14 3 -18 15 -18 49 0 32 -4 44 -15 44 -8 0
-15 -5 -15 -11z"/>
<path d="M5900 401 c0 -13 8 -21 23 -23 14 -2 22 -10 22 -23 0 -14 -6 -20 -22
-19 -13 0 -23 -3 -23 -8 0 -5 12 -8 28 -6 21 2 28 9 30 31 3 22 -1 30 -17 34
-28 7 -27 21 2 26 16 3 13 5 -10 6 -26 1 -33 -3 -33 -18z"/>
<path d="M6042 408 c-17 -17 -15 -63 4 -79 22 -18 48 0 52 35 6 45 -29 71 -56
44z m43 -18 c8 -26 -3 -60 -20 -60 -17 0 -28 34 -20 60 3 11 12 20 20 20 8 0
17 -9 20 -20z"/>
<path d="M6760 409 c0 -5 5 -7 10 -4 6 4 10 -10 10 -34 0 -22 -5 -42 -12 -44
-7 -3 3 -5 22 -5 19 0 27 2 18 5 -14 3 -18 15 -18 49 0 32 -4 44 -15 44 -8 0
-15 -5 -15 -11z"/>
<path d="M6852 413 c28 -4 28 -4 13 -40 -21 -51 -17 -66 6 -18 26 56 24 65
-13 64 -31 -2 -31 -2 -6 -6z"/>
<path d="M6970 401 c0 -11 9 -21 21 -24 28 -8 21 -39 -11 -48 l-25 -7 26 -1
c49 -2 65 54 19 66 -27 7 -25 21 3 26 19 4 18 4 -5 6 -21 1 -28 -4 -28 -18z"/>
<path d="M7676 412 c-3 -6 2 -8 13 -5 31 8 35 -17 7 -46 -34 -35 -33 -41 7
-40 25 1 27 3 9 6 l-24 5 22 23 c12 13 20 31 18 42 -3 19 -42 30 -52 15z"/>
<path d="M7764 395 c-10 -39 3 -75 26 -75 12 0 25 10 32 25 15 33 -3 75 -32
75 -13 0 -22 -9 -26 -25z m41 -26 c0 -24 -5 -34 -15 -34 -16 0 -25 37 -16 62
10 26 31 8 31 -28z"/>
<path d="M7902 408 c-17 -17 -15 -63 4 -79 22 -18 48 0 52 35 6 45 -29 71 -56
44z m43 -18 c8 -26 -3 -60 -20 -60 -17 0 -28 34 -20 60 3 11 12 20 20 20 8 0
17 -9 20 -20z"/>
<path d="M1320 330 c0 -5 5 -10 10 -10 6 0 10 5 10 10 0 6 -4 10 -10 10 -5 0
-10 -4 -10 -10z"/>
<path d="M2230 330 c0 -5 5 -10 10 -10 6 0 10 5 10 10 0 6 -4 10 -10 10 -5 0
-10 -4 -10 -10z"/>
<path d="M3160 330 c0 -5 5 -10 10 -10 6 0 10 5 10 10 0 6 -4 10 -10 10 -5 0
-10 -4 -10 -10z"/>
<path d="M4140 330 c0 -5 5 -10 10 -10 6 0 10 5 10 10 0 6 -4 10 -10 10 -5 0
-10 -4 -10 -10z"/>
<path d="M5070 330 c0 -5 5 -10 10 -10 6 0 10 5 10 10 0 6 -4 10 -10 10 -5 0
-10 -4 -10 -10z"/>
<path d="M5990 330 c0 -5 5 -10 10 -10 6 0 10 5 10 10 0 6 -4 10 -10 10 -5 0
-10 -4 -10 -10z"/>
<path d="M6920 330 c0 -5 5 -10 10 -10 6 0 10 5 10 10 0 6 -4 10 -10 10 -5 0
-10 -4 -10 -10z"/>
<path d="M7850 330 c0 -5 5 -10 10 -10 6 0 10 5 10 10 0 6 -4 10 -10 10 -5 0
-10 -4 -10 -10z"/>
<path d="M4392 175 c0 -61 1 -62 12 -12 9 37 29 30 38 -14 6 -34 6 -34 5 6 -2
33 -6 40 -22 40 -11 0 -23 9 -27 20 -3 11 -6 -7 -6 -40z"/>
<path d="M4060 170 l0 -50 38 1 c30 2 32 3 10 6 -35 5 -39 40 -5 46 l22 4 -22
2 c-33 2 -29 29 5 34 22 3 20 4 -10 6 l-38 1 0 -50z"/>
<path d="M4141 141 c1 -32 4 -48 7 -36 4 11 16 20 26 20 51 0 43 69 -8 71 -25
1 -26 -1 -25 -55z m44 19 c0 -13 -5 -25 -11 -27 -14 -5 -25 22 -17 42 8 23 28
12 28 -15z"/>
<path d="M4230 181 c-15 -29 4 -63 33 -59 18 2 22 10 22 38 0 28 -4 36 -22 38
-14 2 -26 -4 -33 -17z m45 -21 c0 -27 -22 -39 -31 -16 -8 22 3 49 19 43 6 -2
12 -14 12 -27z"/>
<path d="M4322 188 c-27 -27 -2 -74 35 -65 15 4 14 5 -3 6 -41 2 -41 56 -1 64
21 4 21 4 2 6 -12 0 -26 -4 -33 -11z"/>
<path d="M4477 193 c-13 -12 -7 -23 18 -35 28 -13 23 -32 -8 -24 -14 3 -17 2
-10 -5 15 -15 47 -7 51 13 2 9 -5 19 -17 23 -26 8 -27 22 -3 28 14 4 13 5 -4
6 -11 0 -24 -2 -27 -6z"/>
</g>
</svg>
